# xmcd
#
# Track frame offsets:
#	150
#	39077
#	54722
#	83417
#	104105
#	129316
#	145752
#	158280
#	169590
#	193659
#	210228
#	231200
#	250766
#	265468
#	277625
#
# Disc length: 4253 seconds
#
# Revision: 0
# Processed by: cddbd v1.5.2PL0 Copyright (c) Steve Scherf et al.
# Submitted via: EZCDAudioConverter 1.3.4.1
#
DISCID=ba109b0f
DTITLE=V/A - Forge Your Own Chains
DYEAR=2009
DGENRE=
TTITLE0=Top Drawer - Song Of  A Sinner
TTITLE1=Sensational Saints - How Great Thou Art
TTITLE2=East Of Undergroud - Smiling Faces Sometimes
TTITLE3=D.R. Hooker - Forge Your Own Chains
TTITLE4=Shin Jung Hyun and The Men Featuring Jang Hyun - Twilight
TTITLE5=T. Zchiew and The Johnny - Let Your Life Be Free
TTITLE6=The Strangers - Two To Make A Pair
TTITLE7=Damon - Don't You Feel Me
TTITLE8=Ellison - Strawberry Rain
TTITLE9=Morly Grey - Who Can I Say You Are?
TTITLE10=Shadrack Chameleon - Don't Let It Get You Down
TTITLE11=Ofege - It's Not Easy
TTITLE12=Ana Y Jaime - Nina Nana
TTITLE13=Kourosh Yaghmaei - Hajm-E Khaali
TTITLE14=Baby Grandmothers - Somebody's Calling My Name
EXTD=
EXTT0=
EXTT1=
EXTT2=
EXTT3=
EXTT4=
EXTT5=
EXTT6=
EXTT7=
EXTT8=
EXTT9=
EXTT10=
EXTT11=
EXTT12=
EXTT13=
EXTT14=
PLAYORDER=
